<?xml version="1.0" standalone="no"?>
<svg xmlns="http://www.w3.org/2000/svg" xmlns:xlink="http://www.w3.org/1999/xlink" version="1.1" id="v-2" width="100%" height="100%" xmlns:ev="http://www.w3.org/2001/xml-events" style="overflow: hidden; "><g id="v-3" class="joint-viewport svg-pan-zoom_viewport" transform="matrix(1,0,0,1,0,0)" style="transform: matrix(1, 0, 0, 1, 0, 0);"><g model-id="a6910e02-d98f-4707-a43c-9ff46f1afdfc" id="j_695" class="joint-cell joint-type-uml joint-type-uml-class joint-element joint-theme-default" data-type="uml.Class" fill="#ffffff" stroke="none" transform="translate(1,151)"><g class="rotatable" id="v-8778"><g class="scalable" transform="scale(1.61642578125,0.6916666666666667)"><rect class="uml-class-name-rect" id="v-8779" width="200" stroke="#ffffff" stroke-width="0.5" fill="#feb662" height="40" transform="translate(0,0)"/><rect class="uml-class-attrs-rect" id="v-8780" width="200" stroke="#fff" stroke-width="0.5" fill="#fdc886" height="200" transform="translate(0,40)"/><rect class="uml-class-methods-rect" id="v-8781" width="200" stroke="#fff" stroke-width="0.5" fill="#fdc886" display="none" height="20" transform="translate(0,240)"/></g><text class="uml-class-name-text" id="v-8782" font-size="12" xml:space="preserve" y="0.8em" text-anchor="middle" font-weight="bold" fill="black" font-family="Times New Roman" transform="matrix(1,0,0,1,161.6,8.2)"><tspan id="v-8785" class="v-line" dy="0em">User</tspan></text><text class="uml-class-attrs-text" id="v-8783" font-size="12" xml:space="preserve" y="0.8em" fill="black" font-family="monospace" transform="matrix(1,0,0,1,5,43.2)"><tspan id="v-8786" class="v-line" dy="0em">INT              id                  PK AI</tspan><tspan id="v-8787" class="v-line" dy="1em" x="0">VARCHAR(50)      first_name          NN</tspan><tspan id="v-8788" class="v-line" dy="1em" x="0">VARCHAR(50)      last_name           NN</tspan><tspan id="v-8789" class="v-line" dy="1em" x="0">VARCHAR(255)     email               NN UQ</tspan><tspan id="v-8790" class="v-line" dy="1em" x="0">VARCHAR(10)      phone               NN</tspan><tspan id="v-8791" class="v-line" dy="1em" x="0">TEXT             password</tspan><tspan id="v-8792" class="v-line" dy="1em" x="0">ENUM("cus","stf  role                NN</tspan><tspan id="v-8793" class="v-line" dy="1em" x="0">BOOLEAN          status              NN</tspan><tspan id="v-8794" class="v-line" dy="1em" x="0">DATETIME         create_at           NN</tspan></text><text class="uml-class-methods-text" id="v-8784" font-size="12" display="none" xml:space="preserve" y="0.8em" fill="black" font-family="Times New Roman" transform="matrix(1,0,0,1,5,5)"><tspan id="v-8795" class="v-line v-empty-line" dy="0em" style="fill-opacity: 0; stroke-opacity: 0;">-</tspan></text></g></g><g model-id="d57b88d6-53c2-4c71-94b6-79bd7ba30f92" id="j_696" class="joint-cell joint-type-uml joint-type-uml-class joint-element joint-theme-default" data-type="uml.Class" fill="#ffffff" stroke="none" transform="translate(510,383)"><g class="rotatable" id="v-8796"><g class="scalable" transform="scale(2.347666015625,0.6916666666666667)"><rect class="uml-class-name-rect" id="v-8797" width="200" stroke="#ffffff" stroke-width="0.5" fill="#feb662" height="40" transform="translate(0,0)"/><rect class="uml-class-attrs-rect" id="v-8798" width="200" stroke="#fff" stroke-width="0.5" fill="#fdc886" height="200" transform="translate(0,40)"/><rect class="uml-class-methods-rect" id="v-8799" width="200" stroke="#fff" stroke-width="0.5" fill="#fdc886" display="none" height="20" transform="translate(0,240)"/></g><text class="uml-class-name-text" id="v-8800" font-size="12" xml:space="preserve" y="0.8em" text-anchor="middle" font-weight="bold" fill="black" font-family="Times New Roman" transform="matrix(1,0,0,1,234.8,8.2)"><tspan id="v-8803" class="v-line" dy="0em">Machine</tspan></text><text class="uml-class-attrs-text" id="v-8801" font-size="12" xml:space="preserve" y="0.8em" fill="black" font-family="monospace" transform="matrix(1,0,0,1,5,43.2)"><tspan id="v-8804" class="v-line" dy="0em">INT              id                  PK</tspan><tspan id="v-8805" class="v-line" dy="1em" x="0">INT              machine_size_id     NN FK -&gt; Machine_Size.id</tspan><tspan id="v-8806" class="v-line" dy="1em" x="0">VARCHAR(10)      code                NN</tspan><tspan id="v-8807" class="v-line" dy="1em" x="0">INT              capacity            NN</tspan><tspan id="v-8808" class="v-line" dy="1em" x="0">INT              cost                NN</tspan><tspan id="v-8809" class="v-line" dy="1em" x="0">INT              duration            NN</tspan><tspan id="v-8810" class="v-line" dy="1em" x="0">BOOLEAN          status_available    NN</tspan><tspan id="v-8811" class="v-line" dy="1em" x="0">BOOLEAN          status_health       NN</tspan><tspan id="v-8812" class="v-line" dy="1em" x="0">DATETIME         create_at           NN</tspan></text><text class="uml-class-methods-text" id="v-8802" font-size="12" display="none" xml:space="preserve" y="0.8em" fill="black" font-family="Times New Roman" transform="matrix(1,0,0,1,5,5)"><tspan id="v-8813" class="v-line v-empty-line" dy="0em" style="fill-opacity: 0; stroke-opacity: 0;">-</tspan></text></g></g><g model-id="a2e08e2f-5d66-4e73-8a03-d3a6bb33758f" id="j_697" class="joint-cell joint-type-uml joint-type-uml-class joint-element joint-theme-default" data-type="uml.Class" fill="#ffffff" stroke="none" transform="translate(406,133)"><g class="rotatable" id="v-8814"><g class="scalable" transform="scale(2.347666015625,0.6928571428571428)"><rect class="uml-class-name-rect" id="v-8815" width="200" stroke="#ffffff" stroke-width="0.5" fill="#feb662" height="40" transform="translate(0,0)"/><rect class="uml-class-attrs-rect" id="v-8816" width="200" stroke="#fff" stroke-width="0.5" fill="#fdc886" height="240" transform="translate(0,40)"/><rect class="uml-class-methods-rect" id="v-8817" width="200" stroke="#fff" stroke-width="0.5" fill="#fdc886" display="none" height="20" transform="translate(0,280)"/></g><text class="uml-class-name-text" id="v-8818" font-size="12" xml:space="preserve" y="0.8em" text-anchor="middle" font-weight="bold" fill="black" font-family="Times New Roman" transform="matrix(1,0,0,1,234.8,8.3)"><tspan id="v-8821" class="v-line" dy="0em">Reserve_Machine</tspan></text><text class="uml-class-attrs-text" id="v-8819" font-size="12" xml:space="preserve" y="0.8em" fill="black" font-family="monospace" transform="matrix(1,0,0,1,5,45.3)"><tspan id="v-8822" class="v-line" dy="0em">INT              id                  PK AI</tspan><tspan id="v-8823" class="v-line" dy="1em" x="0">INT              user_id             FK -&gt; User.id</tspan><tspan id="v-8824" class="v-line" dy="1em" x="0">INT              machine_id          FK -&gt; Machine.id</tspan><tspan id="v-8825" class="v-line" dy="1em" x="0">CHAR(6)          code                NN</tspan><tspan id="v-8826" class="v-line" dy="1em" x="0">INT              machine_size_id     NN FK -&gt; Machine_Size.id</tspan><tspan id="v-8827" class="v-line" dy="1em" x="0">DATETIME         arrive_at           NN</tspan><tspan id="v-8828" class="v-line" dy="1em" x="0">INT              cost                NN</tspan><tspan id="v-8829" class="v-line" dy="1em" x="0">ENUM("waiting",  status              NN</tspan><tspan id="v-8830" class="v-line" dy="1em" x="0">DATETIME         create_at           NN</tspan><tspan id="v-8831" class="v-line" dy="1em" x="0">DATETIME         actual_arrive</tspan><tspan id="v-8832" class="v-line" dy="1em" x="0">DATETIME         work_at</tspan></text><text class="uml-class-methods-text" id="v-8820" font-size="12" display="none" xml:space="preserve" y="0.8em" fill="black" font-family="Times New Roman" transform="matrix(1,0,0,1,5,5)"><tspan id="v-8833" class="v-line v-empty-line" dy="0em" style="fill-opacity: 0; stroke-opacity: 0;">-</tspan></text></g></g><g model-id="9c7b80a6-b7c1-4e8e-93e2-2fa268e7a6f6" id="j_698" class="joint-cell joint-type-uml joint-type-uml-class joint-element joint-theme-default" data-type="uml.Class" fill="#ffffff" stroke="none" transform="translate(0,382)"><g class="rotatable" id="v-8834"><g class="scalable" transform="scale(2.463125,0.6857142857142857)"><rect class="uml-class-name-rect" id="v-8835" width="200" stroke="#ffffff" stroke-width="0.5" fill="#feb662" height="40" transform="translate(0,0)"/><rect class="uml-class-attrs-rect" id="v-8836" width="200" stroke="#fff" stroke-width="0.5" fill="#fdc886" height="100" transform="translate(0,40)"/><rect class="uml-class-methods-rect" id="v-8837" width="200" stroke="#fff" stroke-width="0.5" fill="#fdc886" display="none" height="20" transform="translate(0,140)"/></g><text class="uml-class-name-text" id="v-8838" font-size="12" xml:space="preserve" y="0.8em" text-anchor="middle" font-weight="bold" fill="black" font-family="Times New Roman" transform="matrix(1,0,0,1,246.3,8.1)"><tspan id="v-8841" class="v-line" dy="0em">Review_Reserve</tspan></text><text class="uml-class-attrs-text" id="v-8839" font-size="12" xml:space="preserve" y="0.8em" fill="black" font-family="monospace" transform="matrix(1,0,0,1,5,38.1)"><tspan id="v-8842" class="v-line" dy="0em">INT              reserve_id          PK FK -&gt; Reserve_Machine.id</tspan><tspan id="v-8843" class="v-line" dy="1em" x="0">ENUM(0,1,2,3,4,  rating              NN</tspan><tspan id="v-8844" class="v-line" dy="1em" x="0">TEXT             description         NN</tspan><tspan id="v-8845" class="v-line" dy="1em" x="0">DATETIME         create_at           NN</tspan></text><text class="uml-class-methods-text" id="v-8840" font-size="12" display="none" xml:space="preserve" y="0.8em" fill="black" font-family="Times New Roman" transform="matrix(1,0,0,1,5,5)"><tspan id="v-8846" class="v-line v-empty-line" dy="0em" style="fill-opacity: 0; stroke-opacity: 0;">-</tspan></text></g></g><g model-id="330f3897-a87f-49b2-8f42-a19d36c0015c" id="j_699" class="joint-cell joint-type-uml joint-type-uml-class joint-element joint-theme-default" data-type="uml.Class" fill="#ffffff" stroke="none" transform="translate(937,195)"><g class="rotatable" id="v-8847"><g class="scalable" transform="scale(1.61642578125,0.68)"><rect class="uml-class-name-rect" id="v-8848" width="200" stroke="#ffffff" stroke-width="0.5" fill="#feb662" height="40" transform="translate(0,0)"/><rect class="uml-class-attrs-rect" id="v-8849" width="200" stroke="#fff" stroke-width="0.5" fill="#fdc886" height="60" transform="translate(0,40)"/><rect class="uml-class-methods-rect" id="v-8850" width="200" stroke="#fff" stroke-width="0.5" fill="#fdc886" display="none" height="20" transform="translate(0,100)"/></g><text class="uml-class-name-text" id="v-8851" font-size="12" xml:space="preserve" y="0.8em" text-anchor="middle" font-weight="bold" fill="black" font-family="Times New Roman" transform="matrix(1,0,0,1,161.6,8)"><tspan id="v-8854" class="v-line" dy="0em">Machine_Size</tspan></text><text class="uml-class-attrs-text" id="v-8852" font-size="12" xml:space="preserve" y="0.8em" fill="black" font-family="monospace" transform="matrix(1,0,0,1,5,36)"><tspan id="v-8855" class="v-line" dy="0em">INT              id                  PK AI</tspan><tspan id="v-8856" class="v-line" dy="1em" x="0">VARCHAR(15)      size                NN</tspan></text><text class="uml-class-methods-text" id="v-8853" font-size="12" display="none" xml:space="preserve" y="0.8em" fill="black" font-family="Times New Roman" transform="matrix(1,0,0,1,5,5)"><tspan id="v-8857" class="v-line v-empty-line" dy="0em" style="fill-opacity: 0; stroke-opacity: 0;">-</tspan></text></g></g><g model-id="0de411f5-1db5-4866-9700-eb5f0a07f793" id="j_700" class="joint-cell joint-type-uml joint-type-uml-class joint-element joint-theme-default" data-type="uml.Class" fill="#ffffff" stroke="none" transform="translate(2,0)"><g class="rotatable" id="v-8858"><g class="scalable" transform="scale(1.61642578125,0.6833333333333333)"><rect class="uml-class-name-rect" id="v-8859" width="200" stroke="#ffffff" stroke-width="0.5" fill="#feb662" height="40" transform="translate(0,0)"/><rect class="uml-class-attrs-rect" id="v-8860" width="200" stroke="#fff" stroke-width="0.5" fill="#fdc886" height="80" transform="translate(0,40)"/><rect class="uml-class-methods-rect" id="v-8861" width="200" stroke="#fff" stroke-width="0.5" fill="#fdc886" display="none" height="20" transform="translate(0,120)"/></g><text class="uml-class-name-text" id="v-8862" font-size="12" xml:space="preserve" y="0.8em" text-anchor="middle" font-weight="bold" fill="black" font-family="Times New Roman" transform="matrix(1,0,0,1,161.6,8.1)"><tspan id="v-8865" class="v-line" dy="0em">Service</tspan></text><text class="uml-class-attrs-text" id="v-8863" font-size="12" xml:space="preserve" y="0.8em" fill="black" font-family="monospace" transform="matrix(1,0,0,1,5,37.1)"><tspan id="v-8866" class="v-line" dy="0em">INT              id                  PK AI</tspan><tspan id="v-8867" class="v-line" dy="1em" x="0">VARCHAR(50)      name                NN</tspan><tspan id="v-8868" class="v-line" dy="1em" x="0">INT              price               NN</tspan></text><text class="uml-class-methods-text" id="v-8864" font-size="12" display="none" xml:space="preserve" y="0.8em" fill="black" font-family="Times New Roman" transform="matrix(1,0,0,1,5,5)"><tspan id="v-8869" class="v-line v-empty-line" dy="0em" style="fill-opacity: 0; stroke-opacity: 0;">-</tspan></text></g></g><g model-id="9162df8c-6e7c-4e20-b278-29ae93ef7142" id="j_701" class="joint-cell joint-type-uml joint-type-uml-class joint-element joint-theme-default" data-type="uml.Class" fill="#ffffff" stroke="none" transform="translate(392,3)"><g class="rotatable" id="v-8870"><g class="scalable" transform="scale(2.463125,0.68)"><rect class="uml-class-name-rect" id="v-8871" width="200" stroke="#ffffff" stroke-width="0.5" fill="#feb662" height="40" transform="translate(0,0)"/><rect class="uml-class-attrs-rect" id="v-8872" width="200" stroke="#fff" stroke-width="0.5" fill="#fdc886" height="60" transform="translate(0,40)"/><rect class="uml-class-methods-rect" id="v-8873" width="200" stroke="#fff" stroke-width="0.5" fill="#fdc886" display="none" height="20" transform="translate(0,100)"/></g><text class="uml-class-name-text" id="v-8874" font-size="12" xml:space="preserve" y="0.8em" text-anchor="middle" font-weight="bold" fill="black" font-family="Times New Roman" transform="matrix(1,0,0,1,246.3,8)"><tspan id="v-8877" class="v-line" dy="0em">Reserve_Service</tspan></text><text class="uml-class-attrs-text" id="v-8875" font-size="12" xml:space="preserve" y="0.8em" fill="black" font-family="monospace" transform="matrix(1,0,0,1,5,36)"><tspan id="v-8878" class="v-line" dy="0em">INT              reserve_id          PK FK -&gt; Reserve_Machine.id</tspan><tspan id="v-8879" class="v-line" dy="1em" x="0">INT              service_id          PK FK -&gt; Service.id</tspan></text><text class="uml-class-methods-text" id="v-8876" font-size="12" display="none" xml:space="preserve" y="0.8em" fill="black" font-family="Times New Roman" transform="matrix(1,0,0,1,5,5)"><tspan id="v-8880" class="v-line v-empty-line" dy="0em" style="fill-opacity: 0; stroke-opacity: 0;">-</tspan></text></g></g><g model-id="ce4fdc09-eb89-43ed-88a4-39d000b5e34a" id="j_702" class="joint-cell joint-type-uml joint-type-uml-relationship joint-type-uml-relationship-nonidentifying joint-type-uml-relationship-nonidentifying-mandatory_one_optional_many joint-link joint-theme-default" data-type="uml.relationship.nonidentifying.mandatory_one_optional_many" fill="transparent"><path class="connection" stroke="black" d="M 886 372 1036 271" id="v-8891" stroke-dasharray="3,3"/><path class="marker-source" fill="none" stroke="black" d="M 0 0 L 10 10 L 0 10 L 10 10 L 0 20 L 10 10 a 5,5 0 1,0 10,0 a 5,5 0 1,0 -10,0" id="v-8889" transform="translate(863.4316154080032,374.6938133388846) scale(1,1) rotate(-33.8375473022461)"/><path class="marker-target" fill="none" stroke="black" d="M 0 0 L 10 0 M 10 0 L 10 10 L 10 -10 M 15 0 L 15 10 L 15 -10" id="v-8890" transform="translate(1048.0000343255856,263.0000004274688) scale(1,1) rotate(-213.83753967285156)"/><path class="connection-wrap" d="M 886 372 1036 271"/><g class="labels"><g class="label" id="v-8885" label-idx="0" cursor="default" transform="translate(961, 321.5)" fill="black"><rect id="v-8887" fill="white" rx="3" ry="3" width="0" height="0" transform="matrix(1,0,0,1,0,0)"/><text id="v-8886" font-size="14" display="none" xml:space="preserve" y="0.8em" text-anchor="middle" pointer-events="none"><tspan id="v-8888" class="v-line v-empty-line" dy="0em" style="fill-opacity: 0; stroke-opacity: 0;">-</tspan></text></g></g></g><g model-id="91674e8a-6143-48a4-9dfe-625b8ea5cf7f" id="j_703" class="joint-cell joint-type-uml joint-type-uml-relationship joint-type-uml-relationship-nonidentifying joint-type-uml-relationship-nonidentifying-mandatory_one_optional_many joint-link joint-theme-default" data-type="uml.relationship.nonidentifying.mandatory_one_optional_many" fill="transparent"><path class="connection" stroke="black" d="M 386 232 339 233" id="v-8902" stroke-dasharray="3,3"/><path class="marker-source" fill="none" stroke="black" d="M 0 0 L 10 10 L 0 10 L 10 10 L 0 20 L 10 10 a 5,5 0 1,0 10,0 a 5,5 0 1,0 -10,0" id="v-8900" transform="translate(406.12193201188904,241.99926158434178) scale(1,1) rotate(-180.69869995117188)"/><path class="marker-target" fill="none" stroke="black" d="M 0 0 L 10 0 M 10 0 L 10 10 L 10 -10 M 15 0 L 15 10 L 15 -10" id="v-8901" transform="translate(324.00000832518236,232.99999543575336) scale(1,1) rotate(-0.6986944079399109)"/><path class="connection-wrap" d="M 386 232 339 233"/><g class="labels"><g class="label" id="v-8896" label-idx="0" cursor="default" transform="translate(362.5, 232.5)" fill="black"><rect id="v-8898" fill="white" rx="3" ry="3" width="0" height="0" transform="matrix(1,0,0,1,0,0)"/><text id="v-8897" font-size="14" display="none" xml:space="preserve" y="0.8em" text-anchor="middle" pointer-events="none"><tspan id="v-8899" class="v-line v-empty-line" dy="0em" style="fill-opacity: 0; stroke-opacity: 0;">-</tspan></text></g></g></g><g model-id="65a2135d-5fa3-454b-9e05-4a7cc79e6228" id="j_704" class="joint-cell joint-type-uml joint-type-uml-relationship joint-type-uml-relationship-nonidentifying joint-type-uml-relationship-nonidentifying-mandatory_one_optional_many joint-link joint-theme-default" data-type="uml.relationship.nonidentifying.mandatory_one_optional_many" fill="transparent"><path class="connection" stroke="black" d="M 692 345 702 369" id="v-8913" stroke-dasharray="3,3"/><path class="marker-source" fill="none" stroke="black" d="M 0 0 L 10 10 L 0 10 L 10 10 L 0 20 L 10 10 a 5,5 0 1,0 10,0 a 5,5 0 1,0 -10,0" id="v-8911" transform="translate(693.1914691938574,323.06079463964363) scale(1,1) rotate(66.80142211914065)"/><path class="marker-target" fill="none" stroke="black" d="M 0 0 L 10 0 M 10 0 L 10 10 L 10 -10 M 15 0 L 15 10 L 15 -10" id="v-8912" transform="translate(707.9999883170118,383.00000238465043) scale(1,1) rotate(-113.19859313964844)"/><path class="connection-wrap" d="M 692 345 702 369"/><g class="labels"><g class="label" id="v-8907" label-idx="0" cursor="default" transform="translate(697, 357)" fill="black"><rect id="v-8909" fill="white" rx="3" ry="3" width="0" height="0" transform="matrix(1,0,0,1,0,0)"/><text id="v-8908" font-size="14" display="none" xml:space="preserve" y="0.8em" text-anchor="middle" pointer-events="none"><tspan id="v-8910" class="v-line v-empty-line" dy="0em" style="fill-opacity: 0; stroke-opacity: 0;">-</tspan></text></g></g></g><g model-id="11493348-9994-4078-bcea-12636923b657" id="j_705" class="joint-cell joint-type-uml joint-type-uml-relationship joint-type-uml-relationship-nonidentifying joint-type-uml-relationship-nonidentifying-mandatory_one_optional_many joint-link joint-theme-default" data-type="uml.relationship.nonidentifying.mandatory_one_optional_many" fill="transparent"><path class="connection" stroke="black" d="M 896 229 922 229" id="v-8924" stroke-dasharray="3,3"/><path class="marker-source" fill="none" stroke="black" d="M 0 0 L 10 10 L 0 10 L 10 10 L 0 20 L 10 10 a 5,5 0 1,0 10,0 a 5,5 0 1,0 -10,0" id="v-8922" transform="translate(876,219) scale(1,1) rotate(0)"/><path class="marker-target" fill="none" stroke="black" d="M 0 0 L 10 0 M 10 0 L 10 10 L 10 -10 M 15 0 L 15 10 L 15 -10" id="v-8923" transform="translate(937,229) scale(1,1) rotate(-180)"/><path class="connection-wrap" d="M 896 229 922 229"/><g class="labels"><g class="label" id="v-8918" label-idx="0" cursor="default" transform="translate(909, 229)" fill="black"><rect id="v-8920" fill="white" rx="3" ry="3" width="0" height="0" transform="matrix(1,0,0,1,0,0)"/><text id="v-8919" font-size="14" display="none" xml:space="preserve" y="0.8em" text-anchor="middle" pointer-events="none"><tspan id="v-8921" class="v-line v-empty-line" dy="0em" style="fill-opacity: 0; stroke-opacity: 0;">-</tspan></text></g></g></g><g model-id="4d9bb19c-213d-4736-ae63-7064d8e8fce8" id="j_706" class="joint-cell joint-type-uml joint-type-uml-relationship joint-type-uml-relationship-identifying joint-type-uml-relationship-identifying-mandatory_one_optional_one joint-link joint-theme-default" data-type="uml.relationship.identifying.mandatory_one_optional_one" fill="transparent"><path class="connection" stroke="black" d="M 362 371 436 334"/><path class="marker-source" fill="none" stroke="black" d="M 10 0 L 10 20 L 10 10 L 0 10 L 14 10 a 5,5 0 1,0 10,0 a 5,5 0 1,0 -10,0" id="v-8933" transform="translate(336.46198610655676,373.0889837988768) scale(1,1) rotate(-26.987890243530266)"/><path class="marker-target" fill="none" stroke="black" d="M 0 0 L 10 0 M 10 0 L 10 10 L 10 -10 M 15 0 L 15 10 L 15 -10" id="v-8934" transform="translate(449.0000107145439,326.99998780435544) scale(1,1) rotate(-206.98788452148438)"/><path class="connection-wrap" d="M 362 371 436 334"/><g class="labels"><g class="label" id="v-8929" label-idx="0" cursor="default" transform="translate(399, 352.5)" fill="black"><rect id="v-8931" fill="white" rx="3" ry="3" width="0" height="0" transform="matrix(1,0,0,1,0,0)"/><text id="v-8930" font-size="14" display="none" xml:space="preserve" y="0.8em" text-anchor="middle" pointer-events="none"><tspan id="v-8932" class="v-line v-empty-line" dy="0em" style="fill-opacity: 0; stroke-opacity: 0;">-</tspan></text></g></g></g><g model-id="354782a9-5843-41e6-88ec-f65001f98a23" id="j_707" class="joint-cell joint-type-uml joint-type-uml-relationship joint-type-uml-relationship-identifying joint-type-uml-relationship-identifying-mandatory_one_optional_many joint-link joint-theme-default" data-type="uml.relationship.identifying.mandatory_one_optional_many" fill="transparent"><path class="connection" stroke="black" d="M 639 91 640 118"/><path class="marker-source" fill="none" stroke="black" d="M 0 0 L 10 10 L 0 10 L 10 10 L 0 20 L 10 10 a 5,5 0 1,0 10,0 a 5,5 0 1,0 -10,0" id="v-8943" transform="translate(648.9986857001588,70.83873474934123) scale(1,1) rotate(89.07595825195312)"/><path class="marker-target" fill="none" stroke="black" d="M 0 0 L 10 0 M 10 0 L 10 10 L 10 -10 M 15 0 L 15 10 L 15 -10" id="v-8944" transform="translate(639.9999798589033,133.00000121410054) scale(1,1) rotate(-90.92404174804688)"/><path class="connection-wrap" d="M 639 91 640 118"/><g class="labels"><g class="label" id="v-8939" label-idx="0" cursor="default" transform="translate(639.5, 104.5)" fill="black"><rect id="v-8941" fill="white" rx="3" ry="3" width="0" height="0" transform="matrix(1,0,0,1,0,0)"/><text id="v-8940" font-size="14" display="none" xml:space="preserve" y="0.8em" text-anchor="middle" pointer-events="none"><tspan id="v-8942" class="v-line v-empty-line" dy="0em" style="fill-opacity: 0; stroke-opacity: 0;">-</tspan></text></g></g></g><g model-id="72e4bb98-1c01-47b9-a16a-f51570c91265" id="j_708" class="joint-cell joint-type-uml joint-type-uml-relationship joint-type-uml-relationship-identifying joint-type-uml-relationship-identifying-mandatory_one_optional_many joint-link joint-theme-default" data-type="uml.relationship.identifying.mandatory_one_optional_many" fill="transparent"><path class="connection" stroke="black" d="M 372 39 340 40"/><path class="marker-source" fill="none" stroke="black" d="M 0 0 L 10 10 L 0 10 L 10 10 L 0 20 L 10 10 a 5,5 0 1,0 10,0 a 5,5 0 1,0 -10,0" id="v-8953" transform="translate(392.1492229788827,48.99888691805153) scale(1,1) rotate(-180.8551025390625)"/><path class="marker-target" fill="none" stroke="black" d="M 0 0 L 10 0 M 10 0 L 10 10 L 10 -10 M 15 0 L 15 10 L 15 -10" id="v-8954" transform="translate(325.00001126124096,40.000000802028914) scale(1,1) rotate(-0.8550974130630493)"/><path class="connection-wrap" d="M 372 39 340 40"/><g class="labels"><g class="label" id="v-8949" label-idx="0" cursor="default" transform="translate(356, 39.5)" fill="black"><rect id="v-8951" fill="white" rx="3" ry="3" width="0" height="0" transform="matrix(1,0,0,1,0,0)"/><text id="v-8950" font-size="14" display="none" xml:space="preserve" y="0.8em" text-anchor="middle" pointer-events="none"><tspan id="v-8952" class="v-line v-empty-line" dy="0em" style="fill-opacity: 0; stroke-opacity: 0;">-</tspan></text></g></g></g></g><defs id="v-4"/></svg>